<svg width="36" height="36" viewBox="0 0 36 36" fill="none" xmlns="http://www.w3.org/2000/svg">
<path d="M29.34 7.87517C29.34 7.87517 24.75 7.06517 23.445 6.61517C21.6006 6.10443 19.876 5.23258 18.3713 4.05017C18.2712 3.95359 18.139 3.89748 18 3.89267C17.8496 3.89003 17.7041 3.9466 17.595 4.05017C16.1048 5.2422 14.3854 6.11526 12.5437 6.61517C11.25 7.06517 6.75 7.87517 6.66 7.87517C6.52881 7.89643 6.40939 7.96345 6.3229 8.06435C6.23642 8.16525 6.18845 8.29352 6.1875 8.42642C6.1875 17.5389 6.3 21.7464 9.09 26.0327C11.475 29.7002 17.5275 31.9277 17.7863 32.0289C17.8495 32.0405 17.9143 32.0405 17.9775 32.0289H18.1687C18.4275 31.9277 24.525 29.7002 26.91 26.0327C29.7 21.7464 29.8125 17.5389 29.8125 8.42642C29.8116 8.29352 29.7636 8.16525 29.6771 8.06435C29.5906 7.96345 29.4712 7.89643 29.34 7.87517ZM25.965 25.4252C24.0075 28.4289 19.0125 30.4877 17.9775 30.8927C16.9425 30.4877 11.9925 28.4289 10.035 25.4252C7.56 21.6227 7.32375 18.2252 7.3125 8.89892C9.20613 8.62397 11.0838 8.24844 12.9375 7.77392C14.7514 7.18505 16.4602 6.31166 18 5.18642C19.557 6.28154 21.2768 7.12438 23.0963 7.68392C24.95 8.15831 26.8276 8.53384 28.7213 8.80892C28.6763 18.1802 28.44 21.5777 25.965 25.3802V25.4252Z" fill="#424242"/>
<path d="M12.7351 18.5288C12.6801 18.4799 12.6159 18.4425 12.5462 18.4188C12.4765 18.3951 12.4028 18.3856 12.3295 18.3909C12.2561 18.3961 12.1845 18.416 12.1189 18.4494C12.0533 18.4827 11.995 18.5288 11.9476 18.5851C11.8523 18.7007 11.8061 18.8489 11.8187 18.9982C11.8313 19.1474 11.9018 19.2858 12.0151 19.3838L17.6401 24.1876C17.7389 24.2761 17.8674 24.3243 18.0001 24.3226H18.0788C18.1581 24.3111 18.2341 24.2831 18.3019 24.2405C18.3697 24.1979 18.4278 24.1415 18.4726 24.0751L25.0201 14.4676C25.1051 14.3437 25.1375 14.1912 25.11 14.0435C25.0826 13.8958 24.9976 13.7651 24.8738 13.6801C24.75 13.595 24.5975 13.5627 24.4498 13.5901C24.3021 13.6175 24.1713 13.7025 24.0863 13.8263L17.8876 22.9276L12.7351 18.5288Z" fill="#424242"/>
</svg>
