<svg width="36" height="36" viewBox="0 0 36 36" fill="none" xmlns="http://www.w3.org/2000/svg">
<g clip-path="url(#clip0_4083_22)">
<path d="M14.565 16.9352C14.2826 16.6528 13.8995 16.4941 13.5 16.4941C13.1006 16.4941 12.7175 16.6528 12.435 16.9352C12.1526 17.2177 11.9939 17.6008 11.9939 18.0002C11.9939 18.3997 12.1526 18.7828 12.435 19.0652L16.935 23.5652C17.0752 23.7043 17.2414 23.8142 17.4242 23.8889C17.6069 23.9635 17.8026 24.0014 18 24.0002C18.2054 23.9937 18.4072 23.9451 18.593 23.8574C18.7788 23.7696 18.9445 23.6447 19.08 23.4902L29.58 11.4902C29.8225 11.1892 29.9394 10.8062 29.9064 10.4212C29.8733 10.0361 29.6929 9.67858 29.4028 9.42325C29.1126 9.16791 28.7351 9.03443 28.3489 9.05064C27.9628 9.06684 27.5978 9.23148 27.33 9.51023L18 20.5L14.565 16.9352Z" fill="#424242"/>
<path d="M31.5 16.5C31.1021 16.5 30.7206 16.658 30.4393 16.9393C30.158 17.2206 30 17.6022 30 18C30 21.1826 28.7357 24.2348 26.4852 26.4853C24.2348 28.7357 21.1826 30 18 30C15.6301 29.9989 13.3136 29.2961 11.3426 27.9803C9.37161 26.6645 7.83435 24.7945 6.92469 22.6062C6.01502 20.4178 5.77368 18.0091 6.2311 15.6838C6.68851 13.3585 7.82421 11.2207 9.49496 9.54C10.606 8.41408 11.9305 7.52106 13.3909 6.91322C14.8512 6.30538 16.4182 5.99491 18 6C18.9591 6.00601 19.9148 6.11666 20.85 6.33C21.0457 6.39053 21.2517 6.41034 21.4553 6.3882C21.659 6.36606 21.8559 6.30244 22.0341 6.20127C22.2122 6.10009 22.3677 5.96351 22.491 5.79993C22.6143 5.63636 22.7028 5.44926 22.751 5.25017C22.7993 5.05108 22.8062 4.84422 22.7714 4.64235C22.7367 4.44048 22.6609 4.24786 22.5488 4.07639C22.4368 3.90491 22.2908 3.75821 22.1198 3.64532C21.9489 3.53243 21.7567 3.45575 21.555 3.42C20.3897 3.14586 19.197 3.00496 18 3C15.0365 3.0154 12.1439 3.90828 9.68741 5.56598C7.23087 7.22368 5.32042 9.57189 4.19714 12.3143C3.07386 15.0567 2.7881 18.0704 3.37592 20.975C3.96373 23.8797 5.39878 26.5451 7.49996 28.635C10.285 31.4213 14.0604 32.9908 18 33C21.9782 33 25.7935 31.4196 28.6066 28.6066C31.4196 25.7936 33 21.9782 33 18C33 17.6022 32.8419 17.2206 32.5606 16.9393C32.2793 16.658 31.8978 16.5 31.5 16.5Z" fill="#424242"/>
</g>
<defs>
<clipPath id="clip0_4083_22">
<rect width="36" height="36" fill="white"/>
</clipPath>
</defs>
</svg>
