<svg width="36" height="36" viewBox="0 0 36 36" fill="none" xmlns="http://www.w3.org/2000/svg">
<path d="M27.75 24V12C27.75 9.933 26.067 8.25 24 8.25H12C9.933 8.25 8.25 9.933 8.25 12V24C8.25 26.0685 9.933 27.75 12 27.75H24C26.067 27.75 27.75 26.0685 27.75 24ZM9.75 24V12C9.75 10.7595 10.7595 9.75 12 9.75H24C25.2405 9.75 26.25 10.7595 26.25 12V24C26.25 25.2405 25.2405 26.25 24 26.25H12C10.7595 26.25 9.75 25.2405 9.75 24Z" fill="#424242"/>
<path d="M21.375 12.375H14.625C13.3845 12.375 12.375 13.3845 12.375 14.625V21.375C12.375 22.6155 13.3845 23.625 14.625 23.625H21.375C22.6155 23.625 23.625 22.6155 23.625 21.375V14.625C23.625 13.3845 22.6155 12.375 21.375 12.375ZM22.125 21.375C22.125 21.7875 21.789 22.125 21.375 22.125H14.625C14.211 22.125 13.875 21.7875 13.875 21.375V14.625C13.875 14.211 14.211 13.875 14.625 13.875H21.375C21.789 13.875 22.125 14.211 22.125 14.625V21.375Z" fill="#424242"/>
<path d="M14.0625 6.8745V5.25C14.0625 4.836 13.7265 4.5 13.3125 4.5C12.8985 4.5 12.5625 4.836 12.5625 5.25V6.8745C12.5625 7.2885 12.8985 7.6245 13.3125 7.6245C13.7265 7.6245 14.0625 7.29 14.0625 6.8745Z" fill="#424242"/>
<path d="M18.75 6.8745V5.25C18.75 4.836 18.414 4.5 18 4.5C17.586 4.5 17.25 4.836 17.25 5.25V6.8745C17.25 7.2885 17.586 7.6245 18 7.6245C18.414 7.6245 18.75 7.29 18.75 6.8745Z" fill="#424242"/>
<path d="M23.4375 6.8745V5.25C23.4375 4.836 23.1015 4.5 22.6875 4.5C22.2735 4.5 21.9375 4.836 21.9375 5.25V6.8745C21.9375 7.2885 22.2735 7.6245 22.6875 7.6245C23.1015 7.6245 23.4375 7.29 23.4375 6.8745Z" fill="#424242"/>
<path d="M12.5625 29.1255V30.75C12.5625 31.164 12.8985 31.5 13.3125 31.5C13.7265 31.5 14.0625 31.164 14.0625 30.75V29.1255C14.0625 28.7115 13.7265 28.3755 13.3125 28.3755C12.8985 28.3755 12.5625 28.7115 12.5625 29.1255Z" fill="#424242"/>
<path d="M17.25 29.1255V30.75C17.25 31.164 17.586 31.5 18 31.5C18.414 31.5 18.75 31.164 18.75 30.75V29.1255C18.75 28.7115 18.414 28.3755 18 28.3755C17.586 28.3755 17.25 28.7115 17.25 29.1255Z" fill="#424242"/>
<path d="M21.9375 29.1255V30.75C21.9375 31.164 22.2735 31.5 22.6875 31.5C23.1015 31.5 23.4375 31.164 23.4375 30.75V29.1255C23.4375 28.7115 23.1015 28.3755 22.6875 28.3755C22.2735 28.3755 21.9375 28.7115 21.9375 29.1255Z" fill="#424242"/>
<path d="M30.75 12.5625H29.1255C28.7115 12.5625 28.3755 12.8985 28.3755 13.3125C28.3755 13.7265 28.7115 14.0625 29.1255 14.0625H30.75C31.164 14.0625 31.5 13.7265 31.5 13.3125C31.5 12.8985 31.164 12.5625 30.75 12.5625Z" fill="#424242"/>
<path d="M30.75 17.25H29.1255C28.7115 17.25 28.3755 17.586 28.3755 18C28.3755 18.414 28.7115 18.75 29.1255 18.75H30.75C31.164 18.75 31.5 18.414 31.5 18C31.5 17.586 31.164 17.25 30.75 17.25Z" fill="#424242"/>
<path d="M30.75 21.9375H29.1255C28.7115 21.9375 28.3755 22.2735 28.3755 22.6875C28.3755 23.1015 28.7115 23.4375 29.1255 23.4375H30.75C31.164 23.4375 31.5 23.1015 31.5 22.6875C31.5 22.2735 31.164 21.9375 30.75 21.9375Z" fill="#424242"/>
<path d="M5.25 14.0625H6.8745C7.2885 14.0625 7.6245 13.7265 7.6245 13.3125C7.6245 12.8985 7.2885 12.5625 6.8745 12.5625H5.25C4.836 12.5625 4.5 12.8985 4.5 13.3125C4.5 13.7265 4.836 14.0625 5.25 14.0625Z" fill="#424242"/>
<path d="M5.25 18.75H6.8745C7.2885 18.75 7.6245 18.414 7.6245 18C7.6245 17.586 7.2885 17.25 6.8745 17.25H5.25C4.836 17.25 4.5 17.586 4.5 18C4.5 18.414 4.836 18.75 5.25 18.75Z" fill="#424242"/>
<path d="M7.6245 22.6875C7.6245 22.2735 7.2885 21.9375 6.8745 21.9375H5.25C4.836 21.9375 4.5 22.2735 4.5 22.6875C4.5 23.1015 4.836 23.4375 5.25 23.4375H6.8745C7.29 23.4375 7.6245 23.1015 7.6245 22.6875Z" fill="#424242"/>
</svg>
