<svg width="37" height="24" viewBox="0 0 37 24" fill="none" xmlns="http://www.w3.org/2000/svg">
<path d="M33.962 3.75357C31.7288 1.90807 28.4037 2.05379 26.3116 4.05489C25.796 3.19049 25.1255 2.4039 24.2868 1.71093C23.0426 0.681701 21.447 0.116645 19.7947 0.116645C17.8853 0.116645 16.0371 0.877524 14.7251 2.2028C14.5437 2.38544 14.371 2.57862 14.2068 2.78631C12.5894 0.77071 9.97582 -0.241376 7.40439 0.223459C5.20153 0.623679 3.47208 1.83291 2.26351 3.8162C0.561095 6.60917 0.424611 9.30719 1.85604 11.8338C2.60637 13.1604 3.58417 14.458 4.84549 15.8017C7.1367 18.234 9.84857 20.5457 13.3833 23.0775C13.6398 23.2588 13.9154 23.3531 14.2048 23.3531C14.6558 23.3531 14.9532 23.1276 15.0897 23.0261C17.5569 21.2657 19.6108 19.6107 21.4279 17.9188C22.2185 18.5419 23.6248 19.6305 25.1881 20.7494C25.3015 20.8292 25.591 21.0046 25.9708 21.0046C26.218 21.0046 26.5035 20.9314 26.8035 20.7085C29.2549 18.9599 31.2679 17.2727 32.9591 15.5498C33.9251 14.5648 35.0215 13.3516 35.8305 11.8292C36.1899 11.1533 36.5987 10.2428 36.5736 9.17664C36.5209 6.96456 35.6413 5.13818 33.962 3.75357ZM21.3699 14.8516C19.3853 16.8744 17.1185 18.7925 14.2015 20.9043C11.0255 18.598 8.56153 16.4795 6.47868 14.2661C5.34197 13.0555 4.46769 11.8991 3.80637 10.7314C2.77648 8.91423 2.8945 7.08851 4.17692 4.9839C5.05055 3.55049 6.23736 2.71643 7.80461 2.43027C8.10066 2.37621 8.39934 2.34917 8.69604 2.34917C10.5224 2.34917 12.1398 3.35994 13.0233 5.05511L13.2165 5.41972C13.4143 5.79159 13.8257 6.04544 14.224 6.01577C14.6453 6.00917 15.027 5.76588 15.2123 5.38873C15.5374 4.72544 15.8881 4.21445 16.3187 3.78126C17.2127 2.87862 18.48 2.35972 19.7954 2.35972C20.9281 2.35972 22.0154 2.74346 22.8587 3.44038C24.4451 4.75115 25.2409 6.40873 25.2923 8.50675C25.3088 9.27555 24.9692 10.0239 24.633 10.6562C23.7448 12.329 22.4855 13.7149 21.3699 14.8516ZM33.8519 10.7762C33.176 12.0474 32.2121 13.1096 31.3589 13.9799C29.8787 15.4879 28.1255 16.9753 25.9675 18.5479C24.7998 17.6993 23.7501 16.889 23.0472 16.3404C24.2571 15.1028 25.6121 13.5936 26.6136 11.7059C27.0567 10.8698 27.5624 9.74565 27.5334 8.45401C27.5156 7.7162 27.4174 7.01533 27.2512 6.34741C27.2532 6.34478 27.2552 6.34346 27.2565 6.34082C27.3119 6.22741 27.3448 6.15818 27.4602 6.03818C27.5459 5.96368 27.6494 5.87071 27.7886 5.73027C29.042 4.46565 31.1697 4.35225 32.5345 5.4817C33.7068 6.44763 34.2956 7.67467 34.3332 9.23071C34.3424 9.6606 34.1987 10.1241 33.8519 10.7762Z" fill="#424242"/>
</svg>
